<svg width="20" height="20" viewBox="0 0 20 20" fill="none" xmlns="http://www.w3.org/2000/svg">
<path d="M10.5 7.37236V5.66628C10.5002 5.53453 10.5407 5.40579 10.6162 5.29628C10.6917 5.18677 10.799 5.1014 10.9245 5.05092C11.05 5.00044 11.1881 4.98712 11.3214 5.01263C11.4547 5.03814 11.5772 5.10134 11.6736 5.19426L16 9.33312L11.6736 13.4713C11.6099 13.5334 11.5341 13.5827 11.4507 13.6164C11.3673 13.65 11.2778 13.6673 11.1875 13.6673C11.0972 13.6673 11.0077 13.65 10.9243 13.6164C10.8409 13.5827 10.7651 13.5334 10.7014 13.4713C10.5725 13.3463 10.5 13.1768 10.5 13V11.3405C8.60938 11.3859 6.54344 11.7179 5 14V13.3333C5 10.2445 7.40625 7.70438 10.5 7.37236Z" fill="#F973A1"/>
<circle cx="10" cy="10" r="9.5" stroke="#F973A1"/>
</svg>
