<svg width="443" height="475" viewBox="0 0 443 475" fill="none" xmlns="http://www.w3.org/2000/svg">
<path d="M92.6161 0.00784213C84.688 0.149389 77.5468 2.10806 71.6159 5.94798C62.5804 11.8034 57.3758 21.5593 55.8047 31.7652C52.6637 52.1794 61.5504 75.7476 79.8453 95.05C98.1378 114.35 126.658 128.997 163.402 128.997H166.353L155.316 106.938C128.453 105.057 108.765 93.8995 95.6602 80.0738C81.2748 64.8969 75.6368 46.1219 77.3374 35.0812C78.1871 29.5597 80.2447 26.3102 83.4643 24.2245C86.684 22.1388 92.0738 20.7463 101.325 22.6203C117.154 25.8263 142.76 39.4946 176.617 70.1462L178.253 68.5069H206.586C163.847 26.4058 131.282 6.47061 105.652 1.27814C102.49 0.627201 99.2835 0.220317 96.0596 0.0610811C94.8968 0.00623674 93.749 -0.0123213 92.6161 0.00784213ZM350.384 0.00784213C349.251 -0.0107082 348.103 0.00704327 346.94 0.0610811C343.839 0.206258 340.634 0.611538 337.349 1.27814C311.718 6.47061 279.152 26.4058 236.416 68.5069H264.746L266.382 70.145C300.239 39.4934 325.845 25.8263 341.674 22.6191C350.925 20.7439 356.315 22.1376 359.534 24.2233C362.754 26.309 364.812 29.5585 365.661 35.0788C367.362 46.1195 361.724 64.8944 347.339 80.0714C334.234 93.8995 314.546 105.056 287.682 106.936L276.647 128.997H279.598C316.342 128.997 344.862 114.351 363.155 95.05C381.45 75.7476 390.336 52.1794 387.195 31.7652C385.624 21.5593 380.42 11.8034 371.384 5.94798C365.453 2.10806 358.312 0.149389 350.384 0.00784213ZM187.282 90.2833L176.655 100.902L189.502 126.577H253.501L266.343 100.902L255.72 90.2833H187.285H187.282ZM0 148.354V204.005H171.874V148.354H0ZM193.661 148.354V475.001H249.339V148.354H193.661ZM271.126 148.354V204.005H443V148.354H271.126ZM38.7322 225.781V475.001H171.874V225.781H38.7322ZM271.126 225.781V475.001H404.268V225.781H271.126Z" fill="white" fill-opacity="0.3"/>
</svg>
