<svg width="50" height="51" viewBox="0 0 50 51" fill="none" xmlns="http://www.w3.org/2000/svg">
<path fill-rule="evenodd" clip-rule="evenodd" d="M25.2486 1.1956e-07C20.8071 -0.000437562 16.4473 1.20082 12.6259 3.47791C8.80447 5.75501 5.66213 9.02412 3.5281 12.9427C1.39406 16.8614 0.346887 21.2853 0.496286 25.7509C0.645684 30.2166 1.98616 34.5596 4.37726 38.325L0.168052 48.1232C0.0139994 48.4817 -0.0355351 48.877 0.025228 49.2627C0.0859911 49.6485 0.254546 50.009 0.511229 50.302C0.767912 50.5951 1.10214 50.8087 1.47492 50.9179C1.84769 51.0271 2.24365 51.0274 2.6166 50.9188L14.6137 47.4174C17.9687 49.0202 21.6391 49.8432 25.3531 49.8255C29.0671 49.8079 32.7296 48.95 36.0694 47.3155C39.4092 45.6809 42.3408 43.3116 44.6471 40.3829C46.9534 37.4541 48.5753 34.041 49.3927 30.3962C50.2102 26.7514 50.2023 22.9684 49.3695 19.3271C48.5368 15.6858 46.9006 12.2796 44.582 9.3607C42.2635 6.44178 39.322 4.08488 35.9754 2.46454C32.6287 0.844187 28.9627 0.00188695 25.2486 1.1956e-07ZM28.9938 32.473C27.9783 33.0772 25.7536 33.2611 21.5253 29.0074C17.297 24.7536 17.4799 22.5183 18.0804 21.494C19.609 21.3374 21.0749 20.3076 22.4343 18.9401C23.4415 17.9267 22.6254 15.469 20.6163 13.4478C18.6045 11.4239 16.1614 10.6056 15.1569 11.6161C8.68201 18.1272 11.9249 26.6704 17.8866 32.6707C23.9302 38.7507 32.1848 42.0845 38.8153 35.4169C39.8198 34.4035 39.0063 31.9457 36.9945 29.9246C34.9827 27.9007 32.5397 27.0823 31.5351 28.0929C30.173 29.4605 29.1494 30.9352 28.9965 32.473" fill="white"/>
</svg>
