<svg width="50" height="47" viewBox="0 0 50 47" fill="none" xmlns="http://www.w3.org/2000/svg">
<mask id="path-1-inside-1_2022_95" fill="white">
<path d="M49.9999 14.1368C49.9999 12.4087 48.6008 11.0076 46.875 11.0076H41.5406C42.9211 9.64407 43.8047 7.85659 43.8047 5.65518C43.8047 2.94454 42.25 0 37.8859 0C32.1438 0 27.3469 6.1222 25.093 9.55411C22.8375 6.12299 17.8938 0.000782234 12.1523 0.000782234C7.78828 0.000782234 6.23359 2.94532 6.23359 5.65596C6.23359 7.85654 7.14141 9.64486 8.55 11.0084H3.125C1.39922 11.0084 0 12.4095 0 14.1375V23.5039H3.15234V43.8708C3.15234 45.5989 4.55151 47 6.27734 47H43.7617C45.4875 47 46.8867 45.5989 46.8867 43.8708V23.5031H50L49.9999 14.1368ZM37.8859 3.12994C39.818 3.12994 40.6797 3.94279 40.6797 5.65601C40.6797 9.13172 36.8055 11.0068 33.1617 11.0068H27.8719C30.0921 7.70478 34 3.12994 37.8859 3.12994ZM12.1523 3.12999C16.039 3.12999 20.0944 7.70483 22.3147 11.0061H17.0233C13.3796 11.0061 9.3585 9.08244 9.3585 5.60672C9.3585 3.89429 10.2202 3.12999 12.1523 3.12999ZM46.875 20.374H26.5625V14.1368H46.875V20.374ZM3.12495 14.1368H23.4375V20.374H3.12495V14.1368ZM6.2773 23.5031H23.4375V43.8701H6.2773V23.5031ZM43.7625 43.8701H26.5625V23.5031H43.7625V43.8701Z"/>
</mask>
<path d="M49.9999 14.1368C49.9999 12.4087 48.6008 11.0076 46.875 11.0076H41.5406C42.9211 9.64407 43.8047 7.85659 43.8047 5.65518C43.8047 2.94454 42.25 0 37.8859 0C32.1438 0 27.3469 6.1222 25.093 9.55411C22.8375 6.12299 17.8938 0.000782234 12.1523 0.000782234C7.78828 0.000782234 6.23359 2.94532 6.23359 5.65596C6.23359 7.85654 7.14141 9.64486 8.55 11.0084H3.125C1.39922 11.0084 0 12.4095 0 14.1375V23.5039H3.15234V43.8708C3.15234 45.5989 4.55151 47 6.27734 47H43.7617C45.4875 47 46.8867 45.5989 46.8867 43.8708V23.5031H50L49.9999 14.1368ZM37.8859 3.12994C39.818 3.12994 40.6797 3.94279 40.6797 5.65601C40.6797 9.13172 36.8055 11.0068 33.1617 11.0068H27.8719C30.0921 7.70478 34 3.12994 37.8859 3.12994ZM12.1523 3.12999C16.039 3.12999 20.0944 7.70483 22.3147 11.0061H17.0233C13.3796 11.0061 9.3585 9.08244 9.3585 5.60672C9.3585 3.89429 10.2202 3.12999 12.1523 3.12999ZM46.875 20.374H26.5625V14.1368H46.875V20.374ZM3.12495 14.1368H23.4375V20.374H3.12495V14.1368ZM6.2773 23.5031H23.4375V43.8701H6.2773V23.5031ZM43.7625 43.8701H26.5625V23.5031H43.7625V43.8701Z" fill="#F8859C"/>
<path d="M49.9999 14.1368H39.9999V14.1369L49.9999 14.1368ZM41.5406 11.0076L34.5133 3.89303L17.1862 21.0076H41.5406V11.0076ZM25.093 9.55411L16.7367 15.0471L25.0968 27.7649L33.4515 15.0436L25.093 9.55411ZM8.55 11.0084V21.0084H33.2582L15.5052 3.82333L8.55 11.0084ZM0 23.5039H-10V33.5039H0V23.5039ZM3.15234 23.5039H13.1523V13.5039H3.15234V23.5039ZM46.8867 23.5031V13.5031H36.8867V23.5031H46.8867ZM50 23.5031V33.5031H60.0001L60 23.503L50 23.5031ZM27.8719 11.0068L19.5734 5.42698L9.09763 21.0068H27.8719V11.0068ZM22.3147 11.0061V21.0061H41.0917L30.6126 5.42525L22.3147 11.0061ZM46.875 20.374V30.374H56.875V20.374H46.875ZM26.5625 20.374H16.5625V30.374H26.5625V20.374ZM26.5625 14.1368V4.13677H16.5625V14.1368H26.5625ZM46.875 14.1368H56.875V4.13677H46.875V14.1368ZM3.12495 14.1368V4.13677H-6.87505V14.1368H3.12495ZM23.4375 14.1368H33.4375V4.13677H23.4375V14.1368ZM23.4375 20.374V30.374H33.4375V20.374H23.4375ZM3.12495 20.374H-6.87505V30.374H3.12495V20.374ZM6.2773 23.5031V13.5031H-3.7227V23.5031H6.2773ZM23.4375 23.5031H33.4375V13.5031H23.4375V23.5031ZM23.4375 43.8701V53.8701H33.4375V43.8701H23.4375ZM6.2773 43.8701H-3.7227V53.8701H6.2773V43.8701ZM43.7625 43.8701V53.8701H53.7625V43.8701H43.7625ZM26.5625 43.8701H16.5625V53.8701H26.5625V43.8701ZM26.5625 23.5031V13.5031H16.5625V23.5031H26.5625ZM43.7625 23.5031H53.7625V13.5031H43.7625V23.5031ZM49.9999 14.1368H59.9999C59.9999 6.8988 54.1366 1.00761 46.875 1.00761V11.0076V21.0076C43.065 21.0076 39.9999 17.9186 39.9999 14.1368H49.9999ZM46.875 11.0076V1.00761H41.5406V11.0076V21.0076H46.875V11.0076ZM41.5406 11.0076L48.5679 18.1222C51.6461 15.0818 53.8047 10.8045 53.8047 5.65518H43.8047H33.8047C33.8047 5.38233 33.867 5.00433 34.0401 4.61167C34.2056 4.2361 34.4039 4.00111 34.5133 3.89303L41.5406 11.0076ZM43.8047 5.65518H53.8047C53.8047 2.53673 52.9237 -1.41844 50.0299 -4.7484C46.9115 -8.33674 42.4988 -10 37.8859 -10V0V10C37.8484 10 37.4214 9.99139 36.7853 9.7247C36.1249 9.44781 35.47 8.98761 34.9338 8.3706C33.9083 7.19057 33.8047 6.06299 33.8047 5.65518H43.8047ZM37.8859 0V-10C31.4513 -10 26.5131 -6.63573 23.528 -3.97538C20.4036 -1.19086 18.0866 2.00571 16.7344 4.06462L25.093 9.55411L33.4515 15.0436C34.3532 13.6706 35.5616 12.0901 36.8347 10.9556C38.2471 9.69683 38.5784 10 37.8859 10V0ZM25.093 9.55411L33.4492 4.06109C32.0484 1.93006 29.6813 -1.25966 26.5213 -4.02943C23.5148 -6.66463 18.5545 -9.99922 12.1523 -9.99922V0.000782234V10.0008C11.4916 10.0008 11.8739 9.7273 13.3385 11.011C14.6495 12.1601 15.8821 13.747 16.7367 15.0471L25.093 9.55411ZM12.1523 0.000782234V-9.99922C7.5395 -9.99922 3.12679 -8.33595 0.00840271 -4.74762C-2.88544 -1.41766 -3.76641 2.53751 -3.76641 5.65596H6.23359H16.2336C16.2336 6.06377 16.13 7.19135 15.1045 8.37138C14.5683 8.98839 13.9134 9.44859 13.253 9.72548C12.6168 9.99218 12.1899 10.0008 12.1523 10.0008V0.000782234ZM6.23359 5.65596H-3.76641C-3.76641 10.8931 -1.51088 15.1871 1.5948 18.1934L8.55 11.0084L15.5052 3.82333C15.6018 3.91682 15.8037 4.14587 15.9776 4.53087C16.1606 4.93616 16.2336 5.34219 16.2336 5.65596H6.23359ZM8.55 11.0084V1.00839H3.125V11.0084V21.0084H8.55V11.0084ZM3.125 11.0084V1.00839C-4.13617 1.00839 -10 6.89917 -10 14.1375H0H10C10 17.9198 6.9346 21.0084 3.125 21.0084V11.0084ZM0 14.1375H-10V23.5039H0H10V14.1375H0ZM0 23.5039V33.5039H3.15234V23.5039V13.5039H0V23.5039ZM3.15234 23.5039H-6.84766V43.8708H3.15234H13.1523V23.5039H3.15234ZM3.15234 43.8708H-6.84766C-6.84766 51.1091 -0.983967 57 6.27734 57V47V37C10.087 37 13.1523 40.0887 13.1523 43.8708H3.15234ZM6.27734 47V57H43.7617V47V37H6.27734V47ZM43.7617 47V57C51.0227 57 56.8867 51.1093 56.8867 43.8708H46.8867H36.8867C36.8867 40.0885 39.9522 37 43.7617 37V47ZM46.8867 43.8708H56.8867V23.5031H46.8867H36.8867V43.8708H46.8867ZM46.8867 23.5031V33.5031H50V23.5031V13.5031H46.8867V23.5031ZM50 23.5031L60 23.503L59.9999 14.1367L49.9999 14.1368L39.9999 14.1369L40 23.5032L50 23.5031ZM37.8859 3.12994V13.1299C37.7183 13.1299 35.4543 13.1354 33.2632 11.1341C30.8756 8.95322 30.6797 6.36083 30.6797 5.65601H40.6797H50.6797C50.6797 3.23797 50.0529 -0.617452 46.7515 -3.63302C43.6465 -6.46906 39.9856 -6.87006 37.8859 -6.87006V3.12994ZM40.6797 5.65601H30.6797C30.6797 4.5712 31.0078 3.49591 31.5649 2.61466C32.0801 1.79983 32.6459 1.37098 32.9308 1.19026C33.396 0.895223 33.4586 1.00682 33.1617 1.00682V11.0068V21.0068C36.5086 21.0068 40.3302 20.1809 43.6434 18.0794C47.1324 15.8663 50.6797 11.6942 50.6797 5.65601H40.6797ZM33.1617 11.0068V1.00682H27.8719V11.0068V21.0068H33.1617V11.0068ZM27.8719 11.0068L36.1704 16.5867C37.0239 15.3173 38.0268 14.0834 38.9208 13.2838C39.3529 12.8973 39.5609 12.7928 39.5168 12.8152C39.4689 12.8395 38.8857 13.1299 37.8859 13.1299V3.12994V-6.87006C32.1988 -6.87006 27.9003 -3.69191 25.5877 -1.62356C23.0013 0.689787 20.9401 3.39433 19.5734 5.42698L27.8719 11.0068ZM12.1523 3.12999V13.13C11.1638 13.13 10.6055 12.8457 10.5974 12.8416C10.5857 12.8357 10.8201 12.9589 11.2703 13.3531C12.1986 14.1661 13.2178 15.3988 14.0169 16.5869L22.3147 11.0061L30.6126 5.42525C29.1914 3.31212 27.0727 0.606809 24.4466 -1.693C22.11 -3.73921 17.7915 -6.87001 12.1523 -6.87001V3.12999ZM22.3147 11.0061V1.00609H17.0233V11.0061V21.0061H22.3147V11.0061ZM17.0233 11.0061V1.00609C16.7638 1.00609 16.7557 0.898726 17.1346 1.13612C17.3746 1.28653 17.9203 1.68362 18.434 2.47574C18.9943 3.33983 19.3585 4.4435 19.3585 5.60672H9.3585H-0.641502C-0.641502 11.7841 3.09315 15.9395 6.51446 18.0835C9.81477 20.1516 13.6391 21.0061 17.0233 21.0061V11.0061ZM9.3585 5.60672H19.3585C19.3585 6.3141 19.1581 8.99833 16.665 11.2087C14.4439 13.178 12.1896 13.13 12.1523 13.13V3.12999V-6.87001C10.1829 -6.87001 6.53173 -6.53586 3.39675 -3.75635C-0.0102211 -0.735686 -0.641502 3.18691 -0.641502 5.60672H9.3585ZM46.875 20.374V10.374H26.5625V20.374V30.374H46.875V20.374ZM26.5625 20.374H36.5625V14.1368H26.5625H16.5625V20.374H26.5625ZM26.5625 14.1368V24.1368H46.875V14.1368V4.13677H26.5625V14.1368ZM46.875 14.1368H36.875V20.374H46.875H56.875V14.1368H46.875ZM3.12495 14.1368V24.1368H23.4375V14.1368V4.13677H3.12495V14.1368ZM23.4375 14.1368H13.4375V20.374H23.4375H33.4375V14.1368H23.4375ZM23.4375 20.374V10.374H3.12495V20.374V30.374H23.4375V20.374ZM3.12495 20.374H13.125V14.1368H3.12495H-6.87505V20.374H3.12495ZM6.2773 23.5031V33.5031H23.4375V23.5031V13.5031H6.2773V23.5031ZM23.4375 23.5031H13.4375V43.8701H23.4375H33.4375V23.5031H23.4375ZM23.4375 43.8701V33.8701H6.2773V43.8701V53.8701H23.4375V43.8701ZM6.2773 43.8701H16.2773V23.5031H6.2773H-3.7227V43.8701H6.2773ZM43.7625 43.8701V33.8701H26.5625V43.8701V53.8701H43.7625V43.8701ZM26.5625 43.8701H36.5625V23.5031H26.5625H16.5625V43.8701H26.5625ZM26.5625 23.5031V33.5031H43.7625V23.5031V13.5031H26.5625V23.5031ZM43.7625 23.5031H33.7625V43.8701H43.7625H53.7625V23.5031H43.7625Z" fill="#F8859C" mask="url(#path-1-inside-1_2022_95)"/>
</svg>
