<svg width="68" height="72" viewBox="0 0 68 72" fill="none" xmlns="http://www.w3.org/2000/svg">
  <path d="M14.2165 0.00132182C12.9995 0.0227774 11.9033 0.319671 10.993 0.901722C9.60602 1.78928 8.80712 3.26807 8.56596 4.81506C8.08383 7.90943 9.44791 11.4819 12.2562 14.4077C15.064 17.3332 19.4419 19.5534 25.082 19.5534H25.5349L23.8409 16.2096C19.7174 15.9246 16.6953 14.2333 14.6837 12.1376C12.4756 9.83713 11.6102 6.99124 11.8712 5.31771C12.0016 4.48076 12.3175 3.9882 12.8117 3.67205C13.3059 3.35591 14.1332 3.14483 15.5532 3.42889C17.983 3.91485 21.9135 5.98668 27.1104 10.6328L27.3616 10.3843L31.7107 10.3843C25.1503 4.00269 20.1516 0.980942 16.2174 0.193872C15.7322 0.0952036 15.2399 0.0335286 14.745 0.00939174C14.5666 0.00107848 14.3904 -0.00173452 14.2165 0.00132182ZM53.7835 0.00132182C53.6096 -0.00149001 53.4334 0.00120073 53.255 0.00939174C52.779 0.0313974 52.287 0.0928293 51.7827 0.193872C47.8484 0.980942 42.8495 4.00269 36.2895 10.3843L40.6382 10.3843L40.8894 10.6326C46.0863 5.9865 50.0168 3.91485 52.4466 3.42871C53.8666 3.14447 54.6939 3.35572 55.1881 3.67187C55.6823 3.98802 55.9982 4.48058 56.1286 5.31735C56.3897 6.99088 55.5242 9.83676 53.3161 12.1373C51.3045 14.2333 48.2824 15.9244 44.1589 16.2094L42.4651 19.5534H42.918C48.5581 19.5534 52.936 17.3334 55.7438 14.4077C58.5521 11.4819 59.9162 7.90943 59.434 4.81506C59.1929 3.26807 58.394 1.78928 57.007 0.901722C56.0967 0.319671 55.0005 0.0227774 53.7835 0.00132182ZM28.7477 13.6852L27.1164 15.2947L29.0884 19.1866L38.9122 19.1866L40.8834 15.2947L39.2527 13.6852L28.748 13.6852H28.7477ZM0 22.4875L0 30.923L26.3825 30.923V22.4875L0 22.4875ZM29.7268 22.4875L29.7268 72.0002H38.2732L38.2732 22.4875L29.7268 22.4875ZM41.6175 22.4875V30.923L68 30.923V22.4875L41.6175 22.4875ZM5.94536 34.2238L5.94536 72.0002H26.3825L26.3825 34.2238L5.94536 34.2238ZM41.6175 34.2238L41.6175 72.0002L62.0546 72.0002L62.0546 34.2238H41.6175Z" fill="#F973A1"/>
</svg>
