<svg width="133" height="143" viewBox="0 0 133 143" fill="none" xmlns="http://www.w3.org/2000/svg">
  <path d="M27.8057 0.00238454C25.4255 0.0449976 23.2815 0.634662 21.5009 1.79068C18.7882 3.55348 17.2257 6.4905 16.754 9.56301C15.811 15.7088 18.479 22.804 23.9716 28.6151C29.4635 34.4254 38.026 38.8349 49.0574 38.8349H49.9433L46.6299 32.1938C38.5649 31.6279 32.654 28.2687 28.7196 24.1065C24.4008 19.5374 22.7081 13.8851 23.2187 10.5613C23.4738 8.89905 24.0915 7.92077 25.0581 7.29287C26.0248 6.66496 27.6429 6.24575 30.4203 6.80992C35.1727 7.77508 42.8602 11.89 53.0248 21.1177L53.5161 20.6242H62.0223C49.1911 7.94954 39.4141 1.94802 31.7194 0.384811C30.7703 0.188844 29.8075 0.0663508 28.8396 0.0184123C28.4905 0.00190123 28.1459 -0.0036857 27.8057 0.00238454ZM105.194 0.00238454C104.854 -0.00320008 104.51 0.00214404 104.16 0.0184123C103.229 0.062118 102.267 0.184129 101.281 0.384811C93.5859 1.94802 83.8085 7.94954 70.978 20.6242H79.4835L79.9748 21.1174C90.1395 11.8896 97.827 7.77508 102.579 6.80955C105.357 6.24502 106.975 6.6646 107.941 7.2925C108.908 7.92041 109.526 8.89869 109.781 10.5606C110.292 13.8844 108.599 19.5367 104.28 24.1057C100.346 28.2687 94.4347 31.6275 86.3697 32.1935L83.0567 38.8349H83.9426C94.974 38.8349 103.536 34.4257 109.028 28.6151C114.521 22.804 117.189 15.7088 116.246 9.56301C115.774 6.4905 114.212 3.55348 111.499 1.79068C109.718 0.634662 107.574 0.0449976 105.194 0.00238454ZM56.227 27.1801L53.0365 30.3768L56.8935 38.1065H76.1076L79.9632 30.3768L76.7737 27.1801H56.2277H56.227ZM0 44.6624V61.4162H51.6011V44.6624H0ZM58.1421 44.6624V143H74.8579V44.6624H58.1421ZM81.3989 44.6624V61.4162H133V44.6624H81.3989ZM11.6284 67.9721V143H51.6011V67.9721H11.6284ZM81.3989 67.9721V143H121.372V67.9721H81.3989Z" fill="#F973A1"/>
</svg>
